<?xml version="1.0" encoding="UTF-8"?><svg id="Layer_1" xmlns="http://www.w3.org/2000/svg" viewBox="0 0 329.01 328.99"><defs><style>.cls-1{fill:#fff;}</style></defs><path class="cls-1" d="M194.64,164.5L322.76,36.39c8.34-8.33,8.34-21.81,0-30.14-8.33-8.33-21.81-8.33-30.14,0L164.51,134.36,36.39,6.25C28.06-2.08,14.6-2.08,6.26,6.25-2.07,14.58-2.07,28.06,6.26,36.39L134.37,164.5,6.26,292.61c-8.34,8.33-8.34,21.81,0,30.14,4.15,4.16,9.61,6.24,15.07,6.24s10.91-2.09,15.07-6.24L164.51,194.64l128.11,128.11c4.16,4.16,9.61,6.24,15.07,6.24s10.91-2.09,15.07-6.24c8.34-8.33,8.34-21.81,0-30.14L194.64,164.5Z"/></svg>