<?xml version="1.0" encoding="UTF-8"?><svg id="Layer_1" xmlns="http://www.w3.org/2000/svg" viewBox="0 0 329 328.99"><defs><style>.cls-1{fill:#39784c;}</style></defs><path class="cls-1" d="M194.64,164.5L322.75,36.39c8.34-8.33,8.34-21.81,0-30.14-8.33-8.33-21.81-8.33-30.14,0L164.5,134.36,36.39,6.25C28.06-2.08,14.59-2.08,6.25,6.25-2.08,14.58-2.08,28.06,6.25,36.39L134.36,164.5,6.25,292.61c-8.34,8.33-8.34,21.81,0,30.14,4.15,4.16,9.61,6.24,15.07,6.24s10.91-2.09,15.07-6.24L164.5,194.64l128.11,128.11c4.16,4.16,9.61,6.24,15.07,6.24s10.91-2.09,15.07-6.24c8.34-8.33,8.34-21.81,0-30.14L194.64,164.5Z"/></svg>