<?xml version="1.0" encoding="utf-8"?>
<!-- Generator: Adobe Illustrator 28.1.0, SVG Export Plug-In . SVG Version: 6.00 Build 0)  -->
<svg version="1.1" xmlns="http://www.w3.org/2000/svg" xmlns:xlink="http://www.w3.org/1999/xlink" x="0px" y="0px"
	 viewBox="0 0 900 660" style="enable-background:new 0 0 900 660;" xml:space="preserve">
<style type="text/css">
	.st0{fill:#F0F0F0;}
	.st1{fill:#39784C;}
	.st2{fill:#FFFFFF;}
</style>
<g id="Layer_2">
	<rect class="st0" width="900" height="660"/>
</g>
<g id="Layer_1">
	<circle class="st1" cx="450" cy="330" r="201.8"/>
	<g>
		<g>
			<path class="st2" d="M543.9,251.6c0,13.8-11.2,25-25,25c-13.8,0-25-11.2-25-25c0-13.8,11.2-25,25-25
				C532.7,226.7,543.9,237.9,543.9,251.6z"/>
			<path class="st2" d="M450,276.6c-13.8,0-25-11.2-25-25c0-13.8,11.2-25,25-25s25,11.2,25,25C475,265.4,463.8,276.6,450,276.6z"/>
			<path class="st2" d="M484.4,308.5v12.9h-68.9v-12.9c0-11.2,5.2-22.4,16.4-29.3c5.2,3.4,12.1,6,18.1,6c6.9,0,12.9-1.7,18.1-5.2
				C478.4,286.1,484.4,296.4,484.4,308.5z"/>
			<path class="st2" d="M493.1,308.5c0-6-1.7-12.1-3.4-17.2c2.6-5.2,6-8.6,11.2-12.1c5.2,4.3,11.2,6,18.1,6s12.9-1.7,18.1-5.2
				c10.3,6,16.4,16.4,16.4,28.4v12.9h-60.3V308.5z"/>
			<path class="st2" d="M346.7,321.4v-12.9c0-11.2,5.2-22.4,16.4-29.3c11.2,7.8,25.8,7.8,37,0c4.3,2.6,8.6,6.9,11.2,12.1
				c-2.6,5.2-3.4,11.2-3.4,17.2v12.9H346.7z"/>
			<path class="st2" d="M406.1,251.6c0,13.8-11.2,25-25,25c-13.8,0-25-11.2-25-25c0-13.8,11.2-25,25-25
				C394.9,226.7,406.1,237.9,406.1,251.6z"/>
			<path class="st2" d="M370.8,433.3c-6.9,0-12.9-6-12.9-12.9v-56h184.3v56c0,6.9-6,12.9-12.9,12.9H370.8z"/>
			<path class="st2" d="M355.3,330h189.5c6.9,0,12.9,6,12.9,12.9c0,6.9-6,12.9-12.9,12.9H355.3c-6.9,0-12.9-6-12.9-12.9
				C342.3,336,348.4,330,355.3,330z"/>
		</g>
	</g>
</g>
</svg>
