<?xml version="1.0" encoding="utf-8"?>
<!-- Generator: Adobe Illustrator 28.1.0, SVG Export Plug-In . SVG Version: 6.00 Build 0)  -->
<svg version="1.1" xmlns="http://www.w3.org/2000/svg" xmlns:xlink="http://www.w3.org/1999/xlink" x="0px" y="0px"
	 viewBox="0 0 900 660" style="enable-background:new 0 0 900 660;" xml:space="preserve">
<style type="text/css">
	.st0{fill:#F0F0F0;}
	.st1{fill:#39784C;}
	.st2{fill:#FFFFFF;}
</style>
<g id="Layer_2">
	<rect class="st0" width="900" height="660"/>
</g>
<g id="Layer_1">
	<circle class="st1" cx="450" cy="330" r="201.8"/>
	<path class="st2" d="M508.2,308.5c3.7,0,6.7,3,6.7,6.7s-3,6.7-6.7,6.7s-6.7-3-6.7-6.7S504.5,308.5,508.2,308.5z M335.2,399.1
		c1-3.9,5-5.7,6.4-6.3c1.3-0.6,6.8-2.5,24.7-6.3c5.7-1.2,21.6-3,33.5-4.3c-10.7-7-22.3-15.3-27.9-21.8
		c-12.3-14.2-24.6-30.5-27.4-59.6c-2.9-29.9,11.4-47.1,12-47.8l3.4-3.9l3.7,3.6c0.4,0.3,29.4,32,50.3,42.5c0.6,0.3,1.2,0.6,1.8,0.9
		c3.9-16.7,19.7-34.5,21.7-36.7l5.4-6l3.9,7.1c0.1,0.2,12,21.9,20.2,38.3c0.6,1.2,1.2,2.5,1.8,3.8c2.5,5.2,5.1,10.6,9.2,15.5
		c8.2-18.3,15.8-27.1,27-28.7c1-0.1,2-0.2,3-0.2c8.8,0,17.5,5.3,20.6,7.3l1.3,0.2c-0.9-2.6-3.9-10.2-9.5-19.2
		c-4.5,1.2-13.4,3.5-24.7,4.3c-17.2,1.3-26.7-7.3-26.7-7.3s17.2-8.9,31.3-7.1c7.3,0.9,12.8,3.1,16.4,5.1
		c-5.8-8.7-8.9-11.3-13.2-16.1c-4.6,0.7-11.9,1.1-22.6-0.4c-20.8-2.9-21.6-11-21.6-11s17.2-6.6,31.3-3.7c6.4,1.3,10.9,4.1,13.9,6.9
		c0,0,8.1,6.9,16.1,17.1c1.1-5.9,3-13.8,5.8-19.5c5.2-10.5,15.5-17.9,15.5-17.9s1.3,17.1-2.6,26.3c-2.5,5.9-9.9,12.2-15,16.1
		c3.7,5.2,7.2,11.1,10.2,17.6c0.2,0.4,0.4,0.8,0.6,1.3c1-5.2,3.2-13.2,8.5-19c8.4-9.2,21.5-12.9,21.5-12.9s-3.2,16.4-12.4,24.8
		c-6.3,5.8-12.6,9.4-15.9,11c0.6,1.6,1.3,3.2,1.9,4.9l19,2.6l-10.3,7.1c-0.1,0-1.6,1.2-3.9,3.1c4.8,13.5,9,26.4,9.2,27.1l-10.8-2.3
		c0-0.2-2.2-8.1-5.1-17.9c-4.7,5.7-9.3,13.3-9.5,22c-0.7,25.9-4.7,42.3-13.6,56.4c-10.4,16.5-35.5,27.1-49.9,29.3
		c-2.2,0.3-4.5,0.5-7,0.5c-11.3,0-23.5-3.5-30-5.4c-1.7-0.5-3.5-1-4-1.1c-1.8,0-8.3,2.3-15.5,6.4c-5.5,3.2-14.7,6.5-20.8,6.5
		c-1.1,0-2.2-0.1-3.1-0.3c-4.3-1.1-5.8-3.5-6.7-5c-0.4-0.6-0.5-0.8-0.8-1c-0.2,0-0.7-0.2-1.8-0.2c-0.9,0-1.8,0.1-2.7,0.1
		c-0.9,0.1-1.8,0.1-2.6,0.1c-1.1,0-4.1,0-5.9-2.4c-0.6-0.8-1.2-1.8-1.9-3c-0.4-0.7-0.9-1.5-1.3-2.1c-0.2,0-0.3,0-0.5,0
		c-0.3,0-0.7,0-1,0c-1.2,0-4.5,0-6.6-2.6c-0.9-1.1-1.4-2.2-1.9-3.1c-0.5-1.1-0.9-1.7-1.4-2.3c-0.4-0.1-1.3-0.3-1.9-0.4
		c-2.5-0.4-6.2-1-9.1-4.2C334.6,403.2,334.9,400.5,335.2,399.1z M458.4,307.5c-0.6-1.2-1.2-2.4-1.8-3.6c-5.1-10.3-11.8-22.7-16-30.4
		c-5.8,7.6-13.2,19-14.2,27.8c15.6,7.1,25.6,9.9,35.4,13.2C460.5,312.1,459.4,309.8,458.4,307.5z M356,402.2
		c1.8,1.7,2.8,3.5,3.5,4.9c0,0,3.5-1.9,6.2-0.1c1.5,1,3.5,5.3,3.5,5.3c0.5,0.7,1,1.5,1.4,2.2c0,0,0,0,0,0c1-0.1,2.2-0.1,3.5-0.1
		c1.9,0,3.5,0.2,4.9,0.6l2.1,0.6l1.7,1.3c2,1.5,3,3.1,3.6,4.1c0,0,0,0,0.1,0c3.4,0,10.6-2.4,15.1-5c1.4-0.8,14-8,21.2-8h0.9l0.9,0.1
		c1.1,0.2,2.2,0.5,5.4,1.4c6,1.7,17.2,5,26.8,5c1.9,0,3.6-0.1,5.2-0.4c12.4-1.9,33.9-11.3,41.9-24.1c7.8-12.3,11.2-27,11.8-50.6
		c0.4-13,7.4-23.9,14-31.2l-2.8-0.4l-2.6-0.4l-2.2-1.5c-3.7-2.5-9.6-5.4-14.2-5.4c-0.5,0-0.9,0-1.4,0.1c-4.8,0.7-10.4,4.1-19.1,24.1
		l-4.6,10.6l-10.6-4.7c-6.8-3-12.6-4.9-19.2-7.1c-11-3.6-23.5-7.7-44.4-18.2c-16.3-8.2-35.9-26.8-47.4-38.6
		c-3.2,6.4-6.9,17.6-5.4,32.9c2.4,25.7,13,39.8,24.6,53.1c2.3,2.6,8.6,8.6,25.5,19.7l26.9,17.6l-31.9,3.5
		c-16.6,1.8-28.4,3.3-32.4,4.1c-6.1,1.3-10.7,2.4-14,3.2L356,402.2z"/>
</g>
</svg>
