<?xml version="1.0" encoding="utf-8"?>
<!-- Generator: Adobe Illustrator 28.1.0, SVG Export Plug-In . SVG Version: 6.00 Build 0)  -->
<svg version="1.1" xmlns="http://www.w3.org/2000/svg" xmlns:xlink="http://www.w3.org/1999/xlink" x="0px" y="0px"
	 viewBox="0 0 900 660" style="enable-background:new 0 0 900 660;" xml:space="preserve">
<style type="text/css">
	.st0{fill:#F0F0F0;}
	.st1{fill:#39784C;}
	.st2{fill:#FFFFFF;}
</style>
<g id="Layer_2">
	<rect class="st0" width="900" height="660"/>
</g>
<g id="Layer_1">
	<circle class="st1" cx="450" cy="330" r="201.8"/>
	<g>
		<path class="st2" d="M540.4,428.9h-4.8V424c0-5.3-4.3-9.6-9.6-9.6H424.6c-5.3,0-9.6,4.3-9.6,9.6v4.8h-4.8c-5.3,0-9.6,3.3-9.6,7.2
			s4.3,7.2,9.6,7.2h14.5h101.3h14.5c5.3,0,9.6-3.3,9.6-7.2S545.7,428.9,540.4,428.9z"/>
		<g>
			<path class="st2" d="M400.6,291.1l58-58c3.8-3.8,3.8-9.9,0-13.6c-3.8-3.8-9.9-3.8-13.6,0l-58,58c-3.8,3.8-3.8,9.9,0,13.6
				C390.7,294.8,396.8,294.8,400.6,291.1z"/>
			<path class="st2" d="M547.2,308.1c-3.8-3.8-9.9-3.8-13.6,0l-58,58c-3.8,3.8-3.8,9.9,0,13.6c3.8,3.8,9.9,3.8,13.6,0l58-58
				C550.9,318,550.9,311.9,547.2,308.1z"/>
			<path class="st2" d="M523.3,304.7l-23.9-23.9l3.4-3.4c3.8-3.8,3.8-9.9,0-13.6l-3.4-3.4c-3.8-3.8-9.9-3.8-13.6,0l-3.4,3.4
				l-20.5-20.5l-51.2,51.2l20.5,20.5l-78.4,78.4c-3.8,3.8-3.8,9.9,0,13.6l3.4,3.4c3.8,3.8,9.9,3.8,13.6,0l78.4-78.4l23.9,23.9
				L523.3,304.7z"/>
		</g>
	</g>
</g>
</svg>
