<?xml version="1.0" encoding="UTF-8"?><svg id="Flat" xmlns="http://www.w3.org/2000/svg" viewBox="0 0 600 600"><defs><style>.cls-1{fill:#fff;}</style></defs><path class="cls-1" d="M300,162.5c-75.94,0-137.5,61.56-137.5,137.5s61.56,137.5,137.5,137.5,137.5-61.56,137.5-137.5c-.09-75.9-61.6-137.41-137.5-137.5Zm0,250c-62.13,0-112.5-50.37-112.5-112.5s50.37-112.5,112.5-112.5,112.5,50.37,112.5,112.5c-.07,62.1-50.4,112.43-112.5,112.5ZM437.5,0H162.5C72.8,.1,.1,72.8,0,162.5V437.5c.1,89.7,72.8,162.4,162.5,162.5H437.5c89.7-.1,162.4-72.8,162.5-162.5V162.5C599.9,72.8,527.2,.1,437.5,0Zm137.5,437.5c-.09,75.9-61.6,137.41-137.5,137.5H162.5c-75.9-.09-137.41-61.6-137.5-137.5V162.5c.09-75.9,61.6-137.41,137.5-137.5H437.5c75.9,.09,137.41,61.6,137.5,137.5V437.5Zm-87.5-300c0,13.81-11.19,25-25,25s-25-11.19-25-25,11.19-25,25-25c13.8,.02,24.98,11.2,25,25Z"/></svg>