<?xml version="1.0" encoding="UTF-8"?><svg id="Layer_2" xmlns="http://www.w3.org/2000/svg" viewBox="0 0 1300 1130"><defs><style>.cls-1{fill:#fff;}</style></defs><g><path class="cls-1" d="M407.45,380.56c42.34-20.47,102.39-43.3,176.97-53.05,140.01-18.29,252.08,19.91,307.13,43.24-6.47,19.71-17.22,42.84-35.22,65.08-11.37,14.05-22.16,23.45-27.19,27.64-21.56,17.93-42.39,27.3-55.28,32.99-16.39,7.24-18.25,6.17-33.43,13.37-16.99,8.06-29.94,16.64-38.34,22.73,2.59-.95,20.1-7.04,35.78,2.74,6.47,4.04,10.29,9.32,12.37,12.86-4.9,1.34-9.81,2.67-14.71,4.01,8.7-1.91,17.22,.56,21.83,6.52,2.65,3.43,3.37,7.19,3.58,9.52-5.63-1.64-18.2-4.42-32.97-.17-19.37,5.58-29.63,19.55-32.41,23.45-2.11,2.96-2.96,4.73-7.48,13.82-4.62,9.27-10.41,20.84-17.19,34.23,3.03-22.85,2.22-40.88,.94-52.95-.95-8.96-2.15-14.54-4.79-20.45-6.23-13.94-17.04-22.09-23.56-26.16-6.49-3.88-13.59-7.77-21.29-11.53-13.29-6.49-25.91-11.36-37.33-15.06-8.41-3.44-91.77-37.78-131.54-67.39-13.65-10.16-21.24-19.07-25.37-24.44-11.84-15.4-17.57-30.76-20.51-41.01Z"/><path class="cls-1" d="M822.47,508.1c26.8-4.3,47.26-12.94,60.46-19.72,15.15-7.78,37.74-19.7,56.26-44.62,5.6-7.54,9.45-14.42,11.96-19.4-14.48,13.49-32.07,28.09-53.02,42.35-27.38,18.64-53.44,31.9-75.65,41.38Z"/><path class="cls-1" d="M957.28,309.94c.63,13.26,.6,49.1-22,86.13-22.74,37.24-54.87,53.64-66.95,59.09,14.87-12.33,33.91-30.85,51.24-56.89,22.7-34.13,32.86-66.75,37.72-88.33Z"/><path class="cls-1" d="M791.86,552.75c27.11-1.32,48.4-7.65,62.26-12.94,15.92-6.06,39.68-15.42,60.83-38.14,6.4-6.88,10.99-13.29,14.03-17.96-15.87,11.81-34.97,24.38-57.37,36.25-29.27,15.5-56.63,25.81-79.75,32.79Z"/><path class="cls-1" d="M375.33,306.01c-6.03,10.63-28.32,52.78-15.11,102.56,14.24,53.69,64.03,94.54,125.77,102.56-12.64-5.15-72.11-30.96-100.4-97.7-20.17-47.57-13.73-90.54-10.26-107.42Z"/><path class="cls-1" d="M337.63,455.69c5.24,16.71,14.87,37.93,33.55,56.07,23.79,23.11,51.68,30.94,96.25,43.45,32.75,9.2,39.48,7.51,71.22,17.63,26.26,8.37,47.03,17.61,60.64,24.21-10.84-8.12-27.54-19.35-49.7-29.37-7.4-3.34-13.87-5.86-34.92-13.18-48.81-16.98-49.49-15.81-67.69-22.8-24.47-9.39-46.31-17.78-69.57-35.49-19.13-14.57-31.98-29.94-39.77-40.53Z"/><path class="cls-1" d="M383.14,557.53c3.41,5.25,7.82,11,13.51,16.69,16.58,16.57,35.22,23.76,46.62,27.02,18.81,4.09,34.34,6.21,45.06,7.4,27.32,3.02,42.1,2,69.42,7.12,11.35,2.12,20.51,4.49,26.44,6.15-5.85-4.65-15-11-27.28-15.89-16.82-6.7-29.53-6.68-45.03-7.68-23.03-1.49-57.65-3.73-88.47-16.42-9.82-4.04-24.26-11.21-40.26-24.37Z"/><path class="cls-1" d="M487.21,639.55c1.69,7.77,5.91,21.91,17.39,35.23,6.43,7.46,18.4,21.35,36.55,22.86,23.68,1.98,49.84-17.99,48.13-33.27-1.57-13.98-26.22-21.52-37-24.82-27.49-8.41-51.94-3.68-65.06,0Z"/><path class="cls-1" d="M651.72,650.81c-6.84,10.81-31.22,46.3-76.51,57.57-15.96,3.97-30.26,3.87-41.12,2.7,13.4,17.73,31,38.13,53.66,58.61,26.34,23.81,52.06,41,73.47,53.25,35.25-22.37,87.48-61.5,134.97-124.24,43.73-57.78,66.81-113.62,79.25-151.89-6.51,3.66-17.02,9.17-30.54,14.45-24.37,9.51-35.85,9.41-70.99,21.05-20.4,6.76-27.25,10.34-33.02,14.03-13.24,8.48-22.15,18.39-27.65,25.58-2.9,6.16-6.58,16.09-6.6,28.49-.02,7.46,1.3,13.46,4.13,23.11,3.24,11.04,8.27,26.2,16.1,44.16-.76,3.79-2.46,9.67-6.6,15.68-6.9,10.02-16.3,14.2-20.23,15.68-.18-4.22-.81-9.46-2.48-15.27-2.79-9.71-7.3-16.91-10.73-21.46,.57,2.98,2.97,17.38-6.19,31.37-9.8,14.96-25.38,18.08-28.07,18.57-4.48,.38-9.44,.58-14.81,.46-5.91-.13-11.32-.62-16.14-1.28,4.58-1.95,14.02-6.72,21.88-16.92,6.98-9.07,9.39-18.14,10.32-22.96-22.33,23.6-48.87,35.05-68.1,27.09-3.37-1.39-7.08-3.62-10.77-7.25,10.01-2.99,27.92-9.85,44.51-25.88,25.54-24.68,30.94-54.64,32.3-64.69Z"/></g><g><path class="cls-1" d="M987.19,828.82c-30.49,8.11-63.05,10.75-92.55,20.84,50.11-42.99,47.26-109.55,80.71-160.21,10.64-14.37,19.41-29.39,31.91-42.99-20.4,40.79-11.51,93.76-34.87,133.45-8.99,15.68-21.93,31.03-36.08,43.42,4.61-.22,8.77-4.17,12.83-6.91,37.94-37.94,87.62-48.47,128.63-79.28,16.45-13.16,31.58-30.27,38.71-48.91-7.9,62.83-70.4,121.83-129.29,140.58"/><path class="cls-1" d="M1123.94,574.19c-18.64,26.43-41.01,50.99-58.23,77.86,1.97-21.27,4.39-47.37-3.84-67.55-14.37-43.42-26.98-87.4-31.03-135.1l.55-18.2c10.75,48.69,58.56,82.13,55.6,136.63,1.1,13.27-2.96,24.45-5.48,36.08l.88,.88,2.19-2.41c7.13-26.76,10.64-54.83,21.71-79.83,15.68-35.97,35.2-72.26,27.2-115.58,23.69,51.21,16.45,119.53-9.54,167.23"/><path class="cls-1" d="M1094.66,298.62c31.36,42.44,38.16,110.1,15.35,158.79-8.55,20.62-14.47,42.66-17.87,65.47-1.54-3.95-1.97-9.21-3.4-13.6-12.39-47.59-57.57-81.59-76.1-126.55-5.81-14.69-10.86-29.94-13.71-45.84,19.74,36.63,68.65,55.6,81.91,95.95,5.48,10.2,5.15,23.03,8.55,33.99,.77,0,1.43-.55,1.43-1.21-5.81-41.56-4.06-85.1,1.54-126.22-.33-22.26-2.52-43.86-14.91-61.08,8.11,4.5,11.62,13.38,17.22,20.29"/><path class="cls-1" d="M1072.51,290.51c8.22,37.17-3.84,73.47,3.84,110.97l-.33,.33c-20.29-39.81-63.16-58.56-92.77-90.47-17.22-18.86-24.56-41.89-28.84-66.34,17,40.79,62.62,49.89,88.82,84.22,8.77,7.9,11.62,18.86,17.33,27.96l.88-.88c-15.13-32.24-20.18-68.43-30.7-102.86-5.26-14.91-15.68-29.5-29.72-38.93,34.54,7.13,64.37,43.1,71.5,75.99"/><path class="cls-1" d="M980.39,205.19c25.99,23.25,37.72,53.29,45.29,84.44l4.28,9.87c-37.72-27.09-71.83-63.49-95.84-101.98l-29.39-29.72c25.77,10.97,53.62,17.55,75.66,37.39"/><path class="cls-1" d="M385.83,172.73c-25.99,22.81-44.08,51.65-63.38,78.63-17.33,21.38-39.48,35.64-59.11,53.95,10.64-21.93,10.97-48.25,25.99-68.32,21.38-37.28,61.08-50.44,96.5-64.26"/><path class="cls-1" d="M243.49,252.24c12.61-15.68,28.73-26.65,46.71-31.25-35.09,24.12-32.79,67.22-43.86,103.19-3.51,13.27-9.65,25.44-12.72,39.15l.88,.66c5.81-15.46,16.12-29.94,28.84-42.44,24.89-23.03,61.74-37.39,73.91-71.39-.55,47.26-39.92,84.44-77.64,110.97-15.57,13.71-30.59,29.17-39.15,46.71-.88-11.95,1.75-23.91,.88-36.63-4.06-41.23-7.02-88.38,22.15-118.98"/><path class="cls-1" d="M172.54,393.37c-1.1-41.78,16.23-75.99,40.68-107.14,.77-.33,1.21-1.1,2.19-.88-26.87,40.9-4.61,92.44-5.92,138.94l-3.51,47.59c.55,.33,.55,1.75,1.75,1.21,1.54-5.26,1.97-10.97,2.96-16.45,6.36-38.38,39.7-65.69,68.87-92.22,6.25-6.91,11.73-14.04,14.91-22.15-2.41,19.08-8.33,38.38-16.34,56.15-22.59,44.3-64.48,80.6-72.16,131.26-3.73-48.58-36.74-84.88-33.45-136.31"/><path class="cls-1" d="M152.14,452.8c2.96-13.05,5.37-26.65,10.97-38.6-10.86,55.27,26.43,95.18,38.6,143.1,5.15,17.87,6.36,37.17,13.71,53.95,.66,.33,1.21-.33,1.64-.88-18.09-50.99,8.11-98.25,34.43-138.06,6.36-10.75,10.09-22.81,13.27-35.2,2.85,23.03-2.96,49.57-6.36,73.47-6.36,30.49-15.9,59.33-24.23,88.82-5.48,18.42-4.06,39.26-1.21,58.67l-2.63-2.19c-19.3-35.64-57.57-63.38-68.87-102.31-9.43-31.03-15.68-67-9.32-100.78"/><path class="cls-1" d="M150.39,560.82c4.28,58.67,67.22,89.59,96.5,138.06,6.91,9.87,12.94,20.94,22.15,29.17-1.43-6.25-7.24-11.51-9.43-17.87-10.2-20.29-13.93-44.63-11.51-69.19,2.85-29.94,15.35-57.68,10.53-89.15,25.66,55.38,17.87,124.46,32.24,184.45,3.73,13.16,11.29,24.78,16.34,37.39-52.75-35.97-124.57-70.07-147.93-135.98-9.87-22.7-10.97-50.88-8.88-76.87"/><path class="cls-1" d="M181.97,695.37c29.39,66.56,102.97,72.05,152.32,112.51,9.1,8.01,18.53,14.91,28.84,19.63l.55-.55c-11.29-10.31-24.45-21.93-32.35-35.2-28.84-40.14-18.75-96.5-40.35-139.71,19.63,23.58,37.5,48.03,49.46,74.68,17.66,43.53,24.45,92.77,65.25,125.78-44.19-14.58-96.06-10.42-135.1-37.72-42.66-26.21-80.71-70.62-88.6-119.42"/><path class="cls-1" d="M257.42,819.39c47.15,53.62,124.13,35.75,186.86,49.79,8.88,1.21,17,4.72,26.43,3.29-7.46-4.72-17.87-4.17-25.99-8.55-49.24-17.33-56.47-70.62-83.12-106.59,34.1,22.7,62.83,53.29,94.31,82.9,22.59,19.85,49.89,28.95,78.63,34.87-6.91,2.52-15.9,1.86-23.36,3.73-51.54,12.72-108.89,33.45-163.5,14.91-35.64-11.19-72.37-39.26-90.25-74.35"/><path class="cls-1" d="M897.16,944.4c-53.18,19.85-108.56-.88-150.01-32.35-16.78-10.64-31.58-25.99-53.29-24.67-7.9-.11-15.46,.22-22.15,2.19,40.35,18.75,77.75,44.63,111.96,77.75-5.81,6.58-13.27,12.72-20.29,18.42-33.01-35.53-69.52-69.74-110.43-89.7-8.01,1.1-15.57,5.81-22.81,9.76-33.34,21.05-66.23,48.14-90.91,81.26l-21.27-17.55c33.99-34.32,71.5-61.08,112.62-80.16-28.73-9.1-50.33,5.37-71.5,20.73-8.55,6.25-17,12.5-25.88,17.55-35.75,25-87.07,36.63-130.16,19.41-23.25-8.77-45.73-21.82-62.51-42.88,33.99,23.36,84.55,25.88,123.15,10.64,51.76-22.48,105.6-50.99,168.11-37.39,9.76,.22,19.19,9.87,28.4,1.64,46.5-12.06,99.02-3.73,138.94,17.55l41.23,16.45c38.38,14.26,87.84,10.31,120.62-13.05-17,20.83-40.03,35.86-63.82,44.41"/><path class="cls-1" d="M954.08,889.46c-59.65,22.48-119.64-5.15-176.77-14.37l-10.97-1.43v-.33c27.31-6.14,53.84-14.37,75.55-33.99,32.02-30.81,60.53-62.51,96.06-86.74-26.43,33.77-29.17,81.91-72.7,103.74-10.75,7.02-24.34,8.33-35.53,13.6,15.9,.33,30.38-5.26,46.06-6.91,58.45-9.21,125.23,.22,166.24-49.57-15.24,34.76-53.29,63.82-87.95,75.99"/><path class="cls-1" d="M1062.42,721.69c-23.58,15.35-47.37,29.72-70.07,47.26v-2.19c34.65-57.68,17.76-136.74,39.15-200.24l7.9-21.27c-4.39,39.48,12.72,72.92,11.51,112.62-1.21,23.91-8.99,45.18-21.6,64.26h2.19c17-22.26,30.27-46.06,50.11-67.22,30.81-29.72,62.18-60.2,66.23-101.43,10.31,68.98-28.4,129.29-85.42,168.22"/></g></svg>