<?xml version="1.0" encoding="utf-8"?>
<!-- Generator: Adobe Illustrator 28.1.0, SVG Export Plug-In . SVG Version: 6.00 Build 0)  -->
<svg version="1.1" xmlns="http://www.w3.org/2000/svg" xmlns:xlink="http://www.w3.org/1999/xlink" x="0px" y="0px"
	 viewBox="0 0 900 660" style="enable-background:new 0 0 900 660;" xml:space="preserve">
<style type="text/css">
	.st0{fill:#F0F0F0;}
	.st1{fill:#39784C;}
	.st2{fill:#FFFFFF;}
</style>
<g id="Layer_2">
	<rect class="st0" width="900" height="660"/>
</g>
<g id="Layer_1">
	<circle class="st1" cx="450" cy="330" r="201.8"/>
	<path class="st2" d="M505.1,249v-25.7l30.4,30.4h-25.7C507.2,253.7,505.1,251.6,505.1,249z M376.4,416.6v-178h-11.6
		c-2.6,0-4.7,2.1-4.7,4.7v193.1c0,2.6,2.1,4.7,4.7,4.7h147.8c2.6,0,4.7-2.1,4.7-4.7v-8.7H387.5C381.4,427.8,376.4,422.8,376.4,416.6
		z M540,260.1v156.5c0,2.6-2.1,4.7-4.7,4.7H387.5c-2.6,0-4.7-2.1-4.7-4.7V223.5c0-2.6,2.1-4.7,4.7-4.7h111.1V249
		c0,6.1,5,11.1,11.1,11.1H540z M453.7,288.7c0,1.8,1.4,3.2,3.2,3.2c0,0,0,0,0,0h11.8c1.8,0,3.2-1.3,3.3-3.1c0-1.8-1.3-3.2-3.1-3.3
		c-0.1,0-0.1,0-0.2,0h-11.8C455.1,285.4,453.7,286.9,453.7,288.7L453.7,288.7z M399.1,269.2c0,1.8,1.4,3.2,3.2,3.2h35
		c1.8,0,3.2-1.3,3.3-3.1c0-1.8-1.3-3.2-3.1-3.3c-0.1,0-0.1,0-0.2,0h-35C400.6,266,399.1,267.5,399.1,269.2z M399.1,288.7
		c0,1.8,1.4,3.2,3.2,3.2l0,0h43.5c1.8,0,3.2-1.5,3.1-3.3c0-1.7-1.4-3.1-3.1-3.1h-43.5C400.6,285.4,399.1,286.9,399.1,288.7z
		 M399.1,354.7c0,1.8,1.4,3.2,3.2,3.2l0,0H414c1.8,0,3.2-1.5,3.1-3.3c0-1.7-1.4-3.1-3.1-3.1h-11.7
		C400.6,351.5,399.1,352.9,399.1,354.7z M402.3,336.8h63.2c1.8,0,3.2-1.5,3.1-3.3c0-1.7-1.4-3.1-3.1-3.1h-63.2
		c-1.8,0-3.2,1.5-3.1,3.3C399.3,335.4,400.6,336.8,402.3,336.8z M526.3,375.8c0-1.8-1.4-3.2-3.2-3.2H402.3c-1.8,0-3.2,1.5-3.1,3.3
		c0,1.7,1.4,3.1,3.1,3.1H523C524.8,379,526.2,377.5,526.3,375.8C526.3,375.8,526.3,375.8,526.3,375.8L526.3,375.8z M526.3,354.7
		c0-1.8-1.4-3.2-3.2-3.2h-95.8c-1.8,0-3.2,1.5-3.1,3.3c0,1.7,1.4,3.1,3.1,3.1H523C524.8,357.9,526.2,356.5,526.3,354.7
		C526.3,354.7,526.3,354.7,526.3,354.7L526.3,354.7z M526.3,333.6c0-1.8-1.4-3.2-3.2-3.2h-46.7c-1.8,0-3.2,1.3-3.3,3.1
		c0,1.8,1.3,3.2,3.1,3.3c0.1,0,0.1,0,0.2,0H523C524.8,336.8,526.2,335.4,526.3,333.6C526.3,333.6,526.3,333.6,526.3,333.6
		L526.3,333.6z M526.3,312.6c0-1.8-1.4-3.2-3.2-3.2H402.3c-1.8,0-3.2,1.5-3.1,3.3c0,1.7,1.4,3.1,3.1,3.1H523
		C524.8,315.8,526.2,314.3,526.3,312.6C526.3,312.6,526.3,312.6,526.3,312.6L526.3,312.6z"/>
</g>
</svg>
