<?xml version="1.0" encoding="utf-8"?>
<!-- Generator: Adobe Illustrator 28.1.0, SVG Export Plug-In . SVG Version: 6.00 Build 0)  -->
<svg version="1.1" xmlns="http://www.w3.org/2000/svg" xmlns:xlink="http://www.w3.org/1999/xlink" x="0px" y="0px"
	 viewBox="0 0 900 660" style="enable-background:new 0 0 900 660;" xml:space="preserve">
<style type="text/css">
	.st0{fill:#F0F0F0;}
	.st1{fill:#39784C;}
	.st2{fill-rule:evenodd;clip-rule:evenodd;fill:#FFFFFF;}
</style>
<g id="Layer_2">
	<rect class="st0" width="900" height="660"/>
</g>
<g id="Layer_1">
	<circle class="st1" cx="450" cy="330" r="201.8"/>
	<path class="st2" d="M402.4,338.9c1.7,0.4,2.7,2.1,2.3,3.8c-0.4,1.7-2.1,2.7-3.8,2.3c-3.9-0.9-7.8-1.6-11.7-2.2
		c-3.9-0.5-7.9-0.8-11.8-1c-1.7-0.1-3.1-1.5-3-3.2c0.1-1.7,1.5-3.1,3.2-3c4.2,0.1,8.3,0.5,12.4,1
		C394.3,337.2,398.4,337.9,402.4,338.9L402.4,338.9z M429,267.9c1.6,0.8,2.2,2.6,1.4,4.2c-0.8,1.6-2.6,2.2-4.2,1.4
		c-15.2-7.5-31.8-11.7-48.8-12.2c-1.7-0.1-3.1-1.5-3-3.2c0.1-1.7,1.5-3.1,3.2-3C395.5,255.6,413,260,429,267.9z M401.4,278.2
		c1.7,0.3,2.8,2,2.5,3.7c-0.3,1.7-2,2.8-3.7,2.5c-0.1,0-0.1,0-0.2,0c-3.7-0.8-7.5-1.5-11.2-2c-3.8-0.5-7.5-0.8-11.4-0.9
		c-1.7-0.1-3.1-1.5-3-3.2c0.1-1.7,1.5-3.1,3.2-3c4,0.1,8,0.4,11.9,1C393.6,276.6,397.5,277.3,401.4,278.2z M499,345
		c-1.7,0.4-3.4-0.6-3.8-2.3c-0.4-1.7,0.6-3.4,2.3-3.8c0,0,0.1,0,0.1,0c4-0.9,8.1-1.7,12.3-2.3c4.1-0.5,8.3-0.9,12.4-1
		c1.7-0.1,3.2,1.3,3.2,3c0.1,1.7-1.3,3.2-3,3.2c-4,0.1-7.9,0.5-11.8,1C506.8,343.3,502.9,344.1,499,345L499,345z M473.8,273.5
		c-1.6,0.8-3.4,0.1-4.2-1.4c-0.8-1.6-0.1-3.4,1.4-4.2l0,0c16-7.9,33.5-12.3,51.4-12.8c1.7-0.1,3.2,1.3,3.2,3c0.1,1.7-1.3,3.2-3,3.2
		C505.6,261.8,489,266,473.8,273.5z M500,284.3c-1.7,0.4-3.4-0.7-3.7-2.4c-0.4-1.7,0.7-3.4,2.4-3.7c3.9-0.9,7.8-1.6,11.8-2.1
		c4-0.5,7.9-0.8,11.9-1c1.7-0.1,3.2,1.3,3.2,3c0.1,1.7-1.3,3.2-3,3.2c-3.8,0.1-7.6,0.4-11.4,0.9S503.7,283.5,500,284.3z
		 M496.4,324.8c-1.5,0.8-3.4,0.3-4.2-1.3c-0.8-1.5-0.3-3.3,1.1-4.2l16.5-9.5c1.5-0.9,3.4-0.4,4.3,1.1c0.9,1.5,0.4,3.4-1.1,4.3
		L496.4,324.8z M478.6,304.7c-0.8,1.5-2.7,2.1-4.2,1.3c-1.5-0.8-2.1-2.7-1.3-4.2c0,0,0.1-0.1,0.1-0.1l9.5-16.5
		c0.8-1.5,2.7-2.1,4.2-1.3c1.5,0.8,2.1,2.7,1.3,4.2c0,0-0.1,0.1-0.1,0.1C488.1,288.2,478.6,304.7,478.6,304.7z M406.8,319.3
		c1.5,0.8,2.1,2.7,1.3,4.2c-0.8,1.5-2.7,2.1-4.2,1.3c0,0-0.1-0.1-0.1-0.1l-16.5-9.5c-1.5-0.9-2-2.8-1.1-4.3c0.9-1.5,2.8-2,4.3-1.1
		l0,0L406.8,319.3L406.8,319.3z M426.9,301.5c0.8,1.5,0.3,3.4-1.3,4.2c-1.5,0.8-3.3,0.3-4.2-1.1l-9.5-16.5c-0.9-1.5-0.4-3.4,1.1-4.3
		c1.5-0.9,3.4-0.4,4.3,1.1c0,0,0,0.1,0,0.1L426.9,301.5z M453.2,296.2c0.1,1.7-1.3,3.2-3,3.2c-1.7,0.1-3.2-1.3-3.2-3
		c0-0.1,0-0.1,0-0.2v-19.1c-0.1-1.7,1.3-3.2,3-3.2s3.2,1.3,3.2,3c0,0.1,0,0.1,0,0.2V296.2L453.2,296.2z M430.2,402.3v2.6
		c0,1.4,1.2,2.6,2.6,2.6h34.5c1.4,0,2.6-1.2,2.6-2.6v-2.6H430.2z M469.8,390.8h-39.6v5.2h39.6V390.8z M461.9,413.7H438
		c1,1,2,2,3.2,2.7C447.9,420.6,456.6,419.5,461.9,413.7z M469.1,384.6c0.2-3.5,0.9-7,1.9-10.4c1.3-4.1,3.3-8.1,5.8-11.6
		c10.1-14.8,6.4-35-8.5-45.2c-14.8-10.1-35-6.4-45.2,8.5c-7.6,11.1-7.6,25.7,0,36.7c2.5,3.6,4.5,7.5,5.8,11.7
		c1.1,3.3,1.7,6.8,1.9,10.3h16v-22c-8.3-1.5-14.3-8.7-14.3-17.1c-0.1-1.7,1.3-3.2,3-3.2s3.2,1.3,3.2,3c0,0.1,0,0.1,0,0.2
		c0,6.2,5,11.2,11.2,11.2s11.2-5,11.2-11.2l0,0c-0.1-1.7,1.3-3.2,3-3.2s3.2,1.3,3.2,3c0,0.1,0,0.1,0,0.2c0,8.4-6,15.6-14.3,17.1v22
		H469.1z M475.8,381.2c0,0.1,0,0.3-0.1,0.4c34.1,0.4,67.8,7.4,99.3,20.4V271.3c-1.9-0.3-3.9-0.5-5.7-0.7c-1.8-0.2-3.6-0.3-5.4-0.5
		v113.4c0,1.7-1.4,3.1-3.1,3.1c-0.4,0-0.9-0.1-1.3-0.3C532.5,377.1,503.6,375.3,475.8,381.2L475.8,381.2z M478.6,371.9
		c-0.4,0.8-0.7,1.6-1,2.5c26.6-5.1,54.1-3.5,80,4.7V257.8c-1.6-0.2-3.2-0.4-4.8-0.6c-1.6-0.2-3.2-0.3-4.8-0.4v103.4
		c0,1.7-1.4,3.1-3.1,3.1c-0.2,0-0.4,0-0.6-0.1C522,359.9,499.2,362.9,478.6,371.9L478.6,371.9z M416.2,363.1
		c-10.5-18.7-3.8-42.3,14.9-52.8s42.3-3.8,52.8,14.9c6.6,11.8,6.6,26.1,0,37.9c18.5-6.7,38.3-8.9,57.9-6.5V242.1
		c-32.1-4.2-64.4,4.9-89.7,25.1c-1.1,0.9-2.8,1-4,0c-25.2-20.2-57.6-29.3-89.7-25.1v114.6C377.8,354.2,397.7,356.5,416.2,363.1
		L416.2,363.1z M422.4,374.4c-0.3-0.8-0.7-1.7-1-2.5c-20.6-9-43.4-12-65.7-8.6c-1.7,0.3-3.3-0.9-3.6-2.6c0-0.2,0-0.3,0-0.5l0,0
		V256.8c-1.6,0.1-3.1,0.2-4.6,0.4c-1.6,0.2-3.3,0.3-5,0.6v121.3C368.3,370.9,395.8,369.3,422.4,374.4z M424.3,381.6
		c0-0.1,0-0.3-0.1-0.4c-27.9-5.9-56.9-4.1-83.9,5.3c-1.6,0.6-3.4-0.3-4-1.9c-0.1-0.3-0.2-0.6-0.2-1l0,0V270.1
		c-1.9,0.1-3.7,0.3-5.6,0.5c-1.8,0.2-3.6,0.4-5.6,0.7V402C356.5,388.9,390.2,382,424.3,381.6L424.3,381.6z"/>
</g>
</svg>
