<?xml version="1.0" encoding="UTF-8"?>
<svg id="Layer_1" data-name="Layer 1" xmlns="http://www.w3.org/2000/svg" viewBox="0 0 379.84 223.21">
  <defs>
    <style>
      .cls-1 {
        fill: #fff;
      }

      .cls-1, .cls-2 {
        stroke-width: 0px;
      }

      .cls-2 {
        fill: #1e1e1e;
      }
    </style>
  </defs>
  <path class="cls-2" d="M148.2,165.59c26.08-22.21,42.87-50.43,54.92-81.6,3.81-9.85,6.35-20.44,7.74-30.93,2.52-18.92-7.09-28.68-25.88-29.2-20.04-.56-34.56,10.16-50.04,20.81-16.14,11.12-20.07,26.08-22.88,43.98-5.99,38.18-21.92,72.31-48.74,100.78-3.12,3.31-6.95,6.22-10.97,8.35-8.45,4.47-16.71-.83-15.09-10.2,1.81-10.43,4-21.21,8.47-30.7,15.96-33.93,33.62-66.95,59.88-94.46,1.1-1.15,2.32-2.74,2.41-4.2,1.34-21.16-13.95-42.64-35.91-38.21-15.4,3.11-28.83,11.51-40.85,21.73-14.38,12.23-20.7,28.34-22.79,46.63-.4,3.47-2.38,6.76-3.64,10.14-.85-.05-1.7-.11-2.55-.16-.8-2.01-2.57-4.19-2.25-6,4.29-24.12,11.07-47.1,33.21-61.58,13.23-8.64,26.57-17.71,43.07-18.31,18.07-.66,33.22,12.56,37.53,31.56.58,2.56,1.08,5.13,1.81,8.62,6.87-5.97,13.04-11.4,19.28-16.75,15.61-13.39,33.41-20.02,54.3-19.36,16.13.51,26.7,10.72,28.32,26.77,1.02,10.08-.57,21-3.51,30.79-10.13,33.78-27.27,63.75-52.35,88.92-1,1-1.95,2.06-2.92,3.09.33.71.66,1.42.99,2.14,8.25-3.33,17.78-5.04,24.48-10.32,15.81-12.47,30.36-26.53,45.14-40.25,1.89-1.75,2.35-5.21,3.11-7.98,8.44-30.65,16.53-61.43,31.25-89.89,2.44-4.72,5.17-9.5,8.75-13.34,2.29-2.46,7-5.14,9.48-4.31,2.7.9,4.44,5.59,5.9,8.93.8,1.82.14,4.28.14,7.66,2.41-1.55,4.12-2.59,5.78-3.71,11.86-8.02,24.58-13.88,39.07-14.93,15-1.09,21.79,5.58,22.82,20.64,1,14.58-2.99,27.87-8.67,40.9-10.21,23.44-21.53,46.26-37.8,66.08,11.32,17.56,19.44,20.05,37.9,11.64,6.86-3.13,13.5-6.73,20.36-9.84,2.61-1.18,5.54-1.95,8.39-2.2,1.26-.11,3.12,1.28,3.86,2.5.43.71-.64,2.54-1.35,3.66-.48.76-1.45,1.35-2.32,1.69-12.42,4.86-24.71,10.13-37.34,14.36-12.66,4.24-22.89-.19-30.58-10.88-.98-1.36-2.2-2.54-4.01-4.61-5.22,5.39-9.77,11.12-15.34,15.59-7.34,5.9-14.99,11.87-23.46,15.75-4.45,2.04-11.92,1.39-16.23-1.11-5.89-3.43-6.76-11.12-3.67-17.06,4.86-9.35,9.7-19.41,17.04-26.65,14.53-14.33,26.56-13.28,41.02.95.44-.11,1.06-.09,1.29-.38,19.35-24.23,32.81-51.6,41.92-81.01,2.22-7.18,1.55-15.41,1.34-23.13-.15-5.55-2.97-9.3-9.62-9.54-17.95-.64-32.31,7.52-46.02,17.66-4.88,3.61-6.96,8.45-9.31,14.03-7.4,17.61-14.81,35.52-24.97,51.58-9.16,14.47-13.46,29.79-16.94,45.96-4.95,22.99-10.51,45.86-16.03,68.73-1.07,4.44-2.8,8.82-4.89,12.89-1.05,2.03-3.61,3.29-5.48,4.89-.96-2.22-2.96-4.55-2.72-6.63,1.41-12.53,2.99-25.07,5.17-37.49,2.68-15.28,6-30.45,9.35-47.16-4.11,3.94-7.42,7.07-10.68,10.26-14.77,14.45-30.56,27.24-51.59,31.49-.47.1-.97.48-1.39.4-13.01-2.37-20.94,6.8-30.19,13.09-9.02,6.14-17.72,13.05-29.7,12.42-8.94-.47-14.98-6.17-15.42-15.1-.76-15.31,5.57-27.91,15.41-38.96,4.91-5.51,12.16-6.08,18.6-1.65,3.57,2.45,6.54,5.79,9.77,8.74,3.23,2.95,6.33,6.07,9.73,8.81,2.05,1.65,4.56,2.72,7.08,4.18ZM106.67,72.63c-23.16,27.58-42.09,57.65-55.75,90.87-2.85,6.92-4.75,14.26-6.64,21.52-.52,2,.55,4.41.88,6.63,2.24-.55,5.1-.41,6.61-1.77,5.58-5.04,11.49-10.01,15.88-16.03,21.98-30.17,36.13-63.52,39.03-101.23ZM138.34,174.6c-5.58-7.47-10.2-14.75-15.93-21.03-7.18-7.87-12.76-7.49-17.93,1.44-4.06,7.02-7.47,14.78-9.28,22.64-2.82,12.22,4.19,18.49,15.55,13.39,11.04-4.96,20.97-12.4,27.6-16.44ZM284.84,116.67c-4.06,1.53-6.6,2.33-9.01,3.43-12.15,5.55-18.89,15.79-22.97,27.81-1.06,3.12-.73,8.54,1.28,10.35,1.95,1.75,8,1.67,10.3-.11,11.26-8.74,21.93-18.24,32.61-27.7.95-.84,1.25-4.26.53-4.84-4.2-3.37-8.8-6.25-12.73-8.94ZM280.1,10.29c-12.34,12.12-16.46,28.12-22.27,43.26,5.43-6.9,9.9-14.55,15.91-20.71,6.5-6.66,6.99-14.21,6.36-22.54ZM273.97,46.36c-.75-.36-1.49-.72-2.24-1.08-4.46,9.19-8.91,18.39-13.37,27.58.68.33,1.37.66,2.05.99,4.52-9.16,9.04-18.33,13.56-27.49Z"/>
  <path class="cls-1" d="M106.67,72.63c-2.89,37.71-17.05,71.06-39.03,101.23-4.38,6.02-10.3,10.98-15.88,16.03-1.5,1.36-4.37,1.22-6.61,1.77-.34-2.22-1.41-4.63-.88-6.63,1.9-7.26,3.79-14.6,6.64-21.52,13.66-33.22,32.59-63.29,55.75-90.87Z"/>
  <path class="cls-1" d="M138.34,174.6c-6.63,4.04-16.55,11.48-27.6,16.44-11.36,5.1-18.37-1.17-15.55-13.39,1.81-7.86,5.22-15.62,9.28-22.64,5.17-8.94,10.75-9.32,17.93-1.44,5.73,6.28,10.35,13.57,15.93,21.03Z"/>
  <path class="cls-1" d="M284.84,116.67c3.94,2.69,8.53,5.57,12.73,8.94.72.58.42,4-.53,4.84-10.68,9.46-21.35,18.96-32.61,27.7-2.3,1.78-8.35,1.87-10.3.11-2.01-1.81-2.34-7.23-1.28-10.35,4.08-12.02,10.82-22.26,22.97-27.81,2.41-1.1,4.95-1.9,9.01-3.43Z"/>
  <path class="cls-1" d="M280.1,10.29c.63,8.33.14,15.88-6.36,22.54-6.01,6.16-10.48,13.82-15.91,20.71,5.81-15.14,9.93-31.13,22.27-43.26Z"/>
  <path class="cls-1" d="M273.97,46.36c-4.52,9.16-9.04,18.33-13.56,27.49-.68-.33-1.37-.66-2.05-.99,4.46-9.19,8.91-18.39,13.37-27.58.75.36,1.49.72,2.24,1.08Z"/>
</svg>